<svg id="Layer_3" enable-background="new 0 0 64 64" height="512" viewBox="0 0 64 64" width="512" xmlns="http://www.w3.org/2000/svg"><g><path d="m60 27.424v-1.424c0-1.654-1.346-3-3-3s-3 1.346-3 3v1h-1v-1c0-2.045-1.237-3.802-3-4.576v-1.424c0-1.654-1.346-3-3-3s-3 1.346-3 3v1h-1.586l-4.707-4.707c-.187-.188-.442-.293-.707-.293h-10c-.265 0-.52.105-.707.293l-4.707 4.707h-6.586v-4h3c.552 0 1-.447 1-1v-8c0-.553-.448-1-1-1h-16c-.552 0-1 .447-1 1v8c0 .553.448 1 1 1h3v4.101c-2.279.465-4 2.485-4 4.899v32c0 2.757 2.243 5 5 5h52c2.757 0 5-2.243 5-5v-26c0-2.045-1.237-3.802-3-4.576zm-4-1.424c0-.552.449-1 1-1s1 .448 1 1v1h-2zm-10-6c0-.552.449-1 1-1s1 .448 1 1v1h-2zm-18.586-2h9.172l3 3h-15.172zm-24.414-9h14v6h-14zm10 8v4h-6v-4zm48 41c0 1.654-1.346 3-3 3h-52c-1.654 0-3-1.346-3-3v-32c0-1.654 1.346-3 3-3h42c1.654 0 3 1.346 3 3v2c0 .553.448 1 1 1h6c1.654 0 3 1.346 3 3z"/><path d="m32 26c-8.822 0-16 7.178-16 16s7.178 16 16 16 16-7.178 16-16-7.178-16-16-16zm0 30c-7.72 0-14-6.28-14-14s6.28-14 14-14 14 6.28 14 14-6.28 14-14 14z"/><path d="m32 30c-6.617 0-12 5.383-12 12s5.383 12 12 12 12-5.383 12-12-5.383-12-12-12zm0 22c-5.514 0-10-4.486-10-10s4.486-10 10-10 10 4.486 10 10-4.486 10-10 10z"/><path d="m48 53c-1.654 0-3 1.346-3 3s1.346 3 3 3 3-1.346 3-3-1.346-3-3-3zm0 4c-.551 0-1-.448-1-1s.449-1 1-1 1 .448 1 1-.449 1-1 1z"/><path d="m17 30v-4c0-.553-.448-1-1-1h-10c-.552 0-1 .447-1 1v4c0 .553.448 1 1 1h10c.552 0 1-.447 1-1zm-2-1h-8v-2h8z"/><path d="m46 11c3.86 0 7 3.141 7 7 0 .553.448 1 1 1s1-.447 1-1c0-3.859 3.14-7 7-7 .552 0 1-.447 1-1s-.448-1-1-1c-3.86 0-7-3.141-7-7 0-.553-.448-1-1-1s-1 .447-1 1c0 3.859-3.14 7-7 7-.552 0-1 .447-1 1s.448 1 1 1zm8-4.879c.858 1.66 2.219 3.021 3.879 3.879-1.66.858-3.021 2.219-3.879 3.879-.858-1.66-2.219-3.021-3.879-3.879 1.66-.858 3.021-2.219 3.879-3.879z"/></g></svg>