<svg xmlns="http://www.w3.org/2000/svg" xmlns:xlink="http://www.w3.org/1999/xlink" width="234" height="200" viewBox="0 0 234 200"><defs><clipPath id="a"><rect width="234" height="200" transform="translate(454 146)" fill="#fff" stroke="#707070" stroke-width="1"/></clipPath></defs><g transform="translate(-454 -146)" clip-path="url(#a)"><g transform="translate(467.774 142.774)"><path d="M193.548,88.465V83.871a9.677,9.677,0,1,0-19.355,0V87.1h-3.226V83.871A16.138,16.138,0,0,0,161.29,69.11V64.516a9.677,9.677,0,0,0-19.355,0v3.226h-5.116L121.635,52.558a3.217,3.217,0,0,0-2.281-.945H87.1a3.217,3.217,0,0,0-2.281.945L69.632,67.742H48.387v-12.9h9.677a3.225,3.225,0,0,0,3.226-3.226V25.806a3.225,3.225,0,0,0-3.226-3.226H6.452a3.225,3.225,0,0,0-3.226,3.226V51.613a3.225,3.225,0,0,0,3.226,3.226h9.677V68.068a16.159,16.159,0,0,0-12.9,15.8V187.1a16.147,16.147,0,0,0,16.129,16.129H187.1A16.147,16.147,0,0,0,203.226,187.1V103.226A16.138,16.138,0,0,0,193.548,88.465Zm-12.9-4.594a3.226,3.226,0,1,1,6.452,0V87.1h-6.452ZM148.387,64.516a3.226,3.226,0,1,1,6.452,0v3.226h-6.452ZM88.432,58.065h29.587l9.677,9.677H78.755ZM9.677,29.032H54.839V48.387H9.677ZM41.935,54.839v12.9H22.581v-12.9ZM196.774,187.1a9.689,9.689,0,0,1-9.677,9.677H19.355A9.689,9.689,0,0,1,9.677,187.1V83.871a9.689,9.689,0,0,1,9.677-9.677H154.839a9.689,9.689,0,0,1,9.677,9.677v6.452a3.225,3.225,0,0,0,3.226,3.226H187.1a9.689,9.689,0,0,1,9.677,9.677Z" fill="#3b4bdc"/><path d="M103.226,83.871a51.613,51.613,0,1,0,51.613,51.613A51.673,51.673,0,0,0,103.226,83.871Zm0,96.774a45.161,45.161,0,1,1,45.161-45.161A45.211,45.211,0,0,1,103.226,180.645Z" fill="#dcdcdc"/><path d="M103.226,96.774a38.71,38.71,0,1,0,38.71,38.71A38.753,38.753,0,0,0,103.226,96.774Zm0,70.968a32.258,32.258,0,1,1,32.258-32.258A32.295,32.295,0,0,1,103.226,167.742Z" fill="#3b4bdc"/><path d="M154.839,170.968a9.677,9.677,0,1,0,9.677,9.677A9.689,9.689,0,0,0,154.839,170.968Zm0,12.9a3.226,3.226,0,1,1,3.226-3.226A3.229,3.229,0,0,1,154.839,183.871Z" fill="#dcdcdc"/><path d="M54.839,96.774v-12.9a3.225,3.225,0,0,0-3.226-3.226H19.355a3.225,3.225,0,0,0-3.226,3.226v12.9A3.225,3.225,0,0,0,19.355,100H51.613A3.225,3.225,0,0,0,54.839,96.774Zm-6.452-3.226H22.581V87.1H48.387Z" fill="#dcdcdc"/><path d="M148.387,35.484a22.608,22.608,0,0,1,22.581,22.581,3.226,3.226,0,0,0,6.452,0A22.608,22.608,0,0,1,200,35.484a3.226,3.226,0,1,0,0-6.452A22.608,22.608,0,0,1,177.419,6.452a3.226,3.226,0,0,0-6.452,0,22.608,22.608,0,0,1-22.581,22.581,3.226,3.226,0,1,0,0,6.452Zm25.806-15.739a29.216,29.216,0,0,0,12.513,12.513,29.216,29.216,0,0,0-12.513,12.513,29.216,29.216,0,0,0-12.513-12.513,29.216,29.216,0,0,0,12.513-12.513Z" fill="#dcdcdc"/></g></g></svg>