<svg xmlns="http://www.w3.org/2000/svg" xmlns:xlink="http://www.w3.org/1999/xlink" width="80" height="80" viewBox="0 0 80 80"><defs><clipPath id="a"><rect width="80" height="80" transform="translate(382 8762)" fill="#fff" stroke="#707070" stroke-width="1"/></clipPath></defs><g transform="translate(-382 -8762)" clip-path="url(#a)"><path d="M68.281,0H11.719A11.733,11.733,0,0,0,0,11.719V68.281A11.733,11.733,0,0,0,11.719,80H35.313V51.719H25.938V37.656h9.375V28.125A14.078,14.078,0,0,1,49.375,14.063H63.594V28.125H49.375v9.531H63.594L61.25,51.719H49.375V80H68.281A11.733,11.733,0,0,0,80,68.281V11.719A11.733,11.733,0,0,0,68.281,0Zm0,0" transform="translate(382 8762)" fill="#efefef"/></g></svg>