<svg xmlns="http://www.w3.org/2000/svg" xmlns:xlink="http://www.w3.org/1999/xlink" width="80" height="80" viewBox="0 0 80 80"><defs><clipPath id="a"><rect width="80" height="80" transform="translate(278 8762)" fill="#fff" stroke="#efefef" stroke-width="1"/></clipPath></defs><g transform="translate(-278 -8762)" clip-path="url(#a)"><g transform="translate(277.938 8762)"><path d="M79.852,23.52a29.232,29.232,0,0,0-1.859-9.705A20.493,20.493,0,0,0,66.286,2.11,29.307,29.307,0,0,0,56.582.25C52.3.047,50.94,0,40.078,0S27.857.047,23.59.234a29.241,29.241,0,0,0-9.7,1.859A19.519,19.519,0,0,0,6.79,6.72,19.7,19.7,0,0,0,2.18,13.8,29.311,29.311,0,0,0,.32,23.5c-.2,4.282-.25,5.642-.25,16.5S.117,52.229.3,56.5A29.231,29.231,0,0,0,2.165,66.2,20.49,20.49,0,0,0,13.87,77.906a29.312,29.312,0,0,0,9.705,1.859c4.266.188,5.626.234,16.488.234s12.221-.046,16.488-.234a29.225,29.225,0,0,0,9.7-1.859A20.462,20.462,0,0,0,77.961,66.2,29.33,29.33,0,0,0,79.82,56.5c.187-4.267.234-5.626.234-16.488s-.016-12.221-.2-16.488Zm-7.2,32.663a21.927,21.927,0,0,1-1.375,7.423,13.271,13.271,0,0,1-7.6,7.6,22.005,22.005,0,0,1-7.423,1.375c-4.22.188-5.485.234-16.159.234s-11.955-.046-16.16-.234A21.916,21.916,0,0,1,16.511,71.2a12.31,12.31,0,0,1-4.594-2.985,12.438,12.438,0,0,1-2.985-4.594A22.009,22.009,0,0,1,7.556,56.2c-.188-4.22-.234-5.486-.234-16.16s.046-11.955.234-16.159a21.916,21.916,0,0,1,1.375-7.423,12.16,12.16,0,0,1,3-4.6,12.419,12.419,0,0,1,4.594-2.985A22.02,22.02,0,0,1,23.95,7.5c4.22-.187,5.486-.234,16.159-.234,10.69,0,11.955.047,16.16.234a21.927,21.927,0,0,1,7.423,1.375,12.3,12.3,0,0,1,4.594,2.985,12.435,12.435,0,0,1,2.985,4.6,22.017,22.017,0,0,1,1.375,7.423c.187,4.22.234,5.485.234,16.159s-.047,11.924-.234,16.144Zm0,0" fill="#efefef"/><path d="M40.078,19.457A20.551,20.551,0,1,0,60.629,40.008,20.556,20.556,0,0,0,40.078,19.457Zm0,33.882A13.331,13.331,0,1,1,53.409,40.008,13.333,13.333,0,0,1,40.078,53.339Zm0,0" fill="#efefef"/><path d="M66.24,18.644a4.8,4.8,0,1,1-4.8-4.8A4.8,4.8,0,0,1,66.24,18.644Zm0,0" fill="#efefef"/></g></g></svg>